<svg xmlns="http://www.w3.org/2000/svg" height="800" width="1200" viewBox="-145.7937 -242.9895 1263.5454 1457.937"><path d="M0 971.957h971.957V0H0z" fill="#F5821F"/><path d="M577.839 155.287l-10.313.053.092 26.033c-.105 8.031-41.45 8.031-41.317 0l.052-51.644-9.56.224.012 59.451c.053 11.262 60.941 10.92 61.271 0l-.237-34.117m-236.88-23.54h11.579l-.159 57.657h-11.447l.027-57.657m-18.397-5.961l.118 9.442c-29.343-.04-52.118.884-59.912 18.463 20.006 2.124 38.825 8.414 56.338 16.59 7.544 5.25 11.804 19.123-10.537 25.545l-72.942-.276c-5.644.448-14.163-8.335-15.535-14.177h8.506c2.282 4.602 5.645 4.299 8.757 5.327h66.77c14.15-2.505 12.45-8.347 6.976-11.42-16.986-6.396-33.629-12.04-56.72-15.997-6.106-1.055-8.15-2.202-7.425-5.38 12.7-25.229 38.732-29.278 75.606-28.117m244.621 18.278h10.813v-10.379h-10.813zm143.286 624.405v19.004a18.33 18.33 0 016.515-4.379c2.466-.95 5.275-1.424 8.414-1.424 6.963 0 12.317 1.662 16.062 5.011 3.706 3.324 5.579 8.124 5.579 14.402v24.938h-13.003v-19.175c0-5.948-.858-9.984-2.572-12.107-1.714-2.123-4.695-3.191-8.955-3.191-4.338 0-7.464 1.2-9.35 3.587-1.886 2.387-2.848 6.475-2.848 12.265v18.62h-12.542v-57.55zm-41.647 29.528a14.919 14.919 0 00-5.961-5.104c-2.427-1.121-5.302-1.701-8.625-1.701-4.405 0-8.097 1.253-11.051 3.705-2.968 2.493-4.445 5.605-4.445 9.35 0 3.693 1.504 6.753 4.537 9.219 3.046 2.44 6.831 3.666 11.42 3.666 3.508 0 6.45-.593 8.784-1.754 2.334-1.174 4.088-2.927 5.235-5.275h13.86c-1.7 5.315-4.971 9.509-9.903 12.529-4.92 3.033-10.867 4.536-17.883 4.536-4.115 0-7.94-.567-11.474-1.714a30.384 30.384 0 01-9.548-5.09c-2.637-2.098-4.694-4.564-6.185-7.4-1.49-2.835-2.255-5.71-2.255-8.624 0-3.06.686-5.921 2.044-8.585 1.345-2.664 3.35-5.064 5.988-7.2 2.914-2.401 6.198-4.208 9.864-5.434 3.666-1.253 7.583-1.873 11.777-1.873 6.844 0 12.779 1.517 17.777 4.55 5.038 3.007 8.308 7.095 9.917 12.199zm-70.226 28.024v-5.341c-1.556 2.163-3.732 3.771-6.554 4.8-2.822 1.016-6.449 1.517-10.867 1.517-8.255 0-15.14-2.19-20.665-6.568-5.526-4.378-8.295-9.838-8.295-16.353 0-3.046.686-5.96 2.07-8.69 1.372-2.744 3.363-5.17 5.935-7.227a28.247 28.247 0 019.244-5.091c3.377-1.081 7.188-1.635 11.421-1.635 4.062 0 7.57.527 10.498 1.582 2.927 1.042 5.301 2.638 7.068 4.787v-5.262h12.713v43.48zm-33.075-22.103c0 3.666 1.556 6.726 4.695 9.192 3.126 2.466 6.937 3.693 11.46 3.693 4.075 0 7.676-1.24 10.788-3.706 3.112-2.48 4.669-5.38 4.669-8.691 0-3.548-1.557-6.58-4.695-9.113-3.126-2.545-6.805-3.824-10.999-3.824-4.378 0-8.137 1.2-11.25 3.613-3.112 2.413-4.668 5.354-4.668 8.836zm-21.206-12.568c-5.05.303-8.559 1.358-10.563 3.086-1.978 1.754-2.994 4.88-2.994 9.403v22.182h-13.003v-43.48h12.186v5.024c1.964-1.965 4.1-3.39 6.448-4.3 2.335-.896 4.972-1.358 7.926-1.358zm-59.952 34.67v-34.472h-8.532v-9.008h8.532v-14.07h13.004v14.071h8.572v9.008h-8.572v34.473zm-34.038 0v-5.34c-1.556 2.163-3.745 3.771-6.554 4.8-2.835 1.016-6.462 1.517-10.867 1.517-8.255 0-15.14-2.19-20.665-6.568-5.526-4.378-8.322-9.838-8.322-16.353 0-3.046.713-5.96 2.097-8.69 1.385-2.744 3.337-5.17 5.935-7.227a28.115 28.115 0 019.245-5.091c3.376-1.081 7.187-1.635 11.433-1.635 4.05 0 7.544.527 10.485 1.582 2.914 1.042 5.275 2.638 7.068 4.787v-5.262h12.7v43.48zm-33.088-22.102c0 3.666 1.556 6.726 4.708 9.192 3.1 2.466 6.937 3.693 11.434 3.693 4.075 0 7.689-1.24 10.814-3.706 3.112-2.48 4.669-5.38 4.669-8.691 0-3.548-1.557-6.58-4.708-9.113-3.126-2.545-6.792-3.824-10.986-3.824-4.378 0-8.15 1.2-11.262 3.613-3.113 2.413-4.669 5.354-4.669 8.836zm-63.842-21.378v4.933a18.15 18.15 0 016.528-4.379c2.453-.95 5.235-1.424 8.4-1.424 4.023 0 7.53.607 10.55 1.794 2.994 1.187 5.474 2.954 7.465 5.314 1.306 1.583 2.216 3.39 2.77 5.394.567 2.018.844 4.972.844 8.85v22.999h-13.004v-19.254c0-5.83-.87-9.812-2.585-11.975-1.727-2.163-4.72-3.244-8.94-3.244-4.34 0-7.452 1.2-9.338 3.587-1.886 2.387-2.835 6.475-2.835 12.265v18.62h-12.568v-43.48zm-85.537 21.536c0-3.046.739-5.96 2.19-8.704 1.41-2.756 3.508-5.196 6.237-7.332 2.823-2.176 5.988-3.864 9.522-5.038 3.508-1.174 7.161-1.754 10.96-1.754 4.022 0 7.74.514 11.156 1.57a30.886 30.886 0 019.364 4.681c2.914 2.176 5.182 4.695 6.752 7.557 1.595 2.862 2.373 5.802 2.373 8.796 0 3.323-.685 6.343-2.07 9.086-1.372 2.744-3.455 5.223-6.238 7.425-2.782 2.242-5.948 3.943-9.495 5.09-3.548 1.148-7.425 1.715-11.579 1.715-4.207 0-8.045-.567-11.473-1.74-3.469-1.148-6.594-2.902-9.456-5.21-2.717-2.268-4.774-4.774-6.146-7.49-1.398-2.73-2.097-5.605-2.097-8.652zm13.412-.066c0 4.036 1.425 7.227 4.26 9.588 2.849 2.374 6.713 3.534 11.58 3.534 4.826 0 8.65-1.2 11.512-3.613 2.862-2.414 4.313-5.671 4.313-9.746 0-3.666-1.504-6.673-4.498-9.034-2.993-2.374-6.791-3.547-11.328-3.547-4.655 0-8.466 1.2-11.42 3.6-2.941 2.374-4.419 5.46-4.419 9.218zm-49.929 7.583v.607c0 1.899.633 3.482 1.873 4.668 1.28 1.2 2.901 1.807 4.88 1.807 1.912 0 3.468-.448 4.668-1.358 1.187-.897 1.794-2.044 1.794-3.429 0-1.28-.436-2.36-1.332-3.178-.858-.818-2.44-1.662-4.735-2.506a280.654 280.654 0 00-5.684-1.873c-2.506-.778-4.114-1.398-4.813-1.833-2.084-1.332-3.587-2.796-4.563-4.418-.99-1.622-1.49-3.481-1.49-5.565 0-3.666 1.648-6.752 4.958-9.284 3.31-2.532 7.306-3.798 12.001-3.798 4.972 0 8.902 1.12 11.816 3.363 2.888 2.242 4.484 5.38 4.748 9.416h-11.685v-.25c0-1.386-.461-2.48-1.397-3.271-.937-.805-2.23-1.187-3.89-1.187-1.438 0-2.665.382-3.614 1.16-.976.778-1.451 1.754-1.451 2.915 0 1.899 2.492 3.666 7.504 5.301 1.319.422 2.334.739 3.06.99 4.8 1.674 8.084 3.48 9.85 5.433 1.755 1.925 2.638 4.536 2.638 7.833 0 4.062-1.78 7.412-5.288 10.063-3.508 2.65-7.965 3.97-13.307 3.97-5.38 0-9.719-1.386-13.016-4.181-3.297-2.783-5.09-6.581-5.42-11.342l11.895-.053M416.564 186.2h65.452c24.068-1.979 7.504-32.1-9.087-27.234-22.577 6.7-41.264 14.863-56.365 27.233zm-20.309-54.69l10.827-.159-.263 44.918c26.257-18.582 53.806-27.47 80.775-26.086 13.623.726 31.822 39.234-7.293 45.657H377.317c-5.868 14.097-16.181 23.75-30.925 29.079l-.185-11.197c12.885-4.787 21.035-15.904 25.11-32.402l-.132-25.954h9.1l.066 25.993h15.865l.04-49.85M623.877 162c11.672 0 21.167 4.352 21.167 9.72 0 5.287-9.495 9.64-21.167 9.64-11.631 0-21.127-4.353-21.127-9.64 0-5.368 9.496-9.72 21.127-9.72zm133.672-6.62h-10.59v25.94c0 8.097-23.764 8.097-23.764.04v-25.98h-12.014v25.98c0 8.057-24.53 8.057-24.53 0v-25.98h-11.315v25.98c-.461 3.362-8.005 8.703-18.225 8.255-.25-12.317-2.137-34.236-23.184-34.236-21.14 0-38.021 0-40.843 11.395-2.058 11.236 4.062 22.643 23.606 22.643 10.695.923 20.758.132 30.398-1.873-2.005 14.006-9.825 22.288-23.567 26.6l.053 11.184c15.403-5.54 27.589-14.19 31.268-26.996 7.53 0 15.338-1.978 20.653-8.559h11.157c8.901 6.45 16.656 6.067 24.529-.356h10.788c1.424 0 .62 4.524 15.64 4.22 19.36-.33 19.94-11.658 19.94-12.278v-25.98m-5.829 184.999l.145-104.236-487.91-1.57c-33.102 1.57-43.863 12.331-43.863 44.641v160.68c0 22.473 9.944 37.283 50.549 37.283h367.427c8.901 0 9.534 19.03 0 19.03H220.092v107.877h206.89v28.789h-206.89l1.45 103.854 530.323.646v-104.5H550.21v-28.79h168.026c20.666 0 33.63-10.774 33.63-33.22V406.423c0-31.848-10.828-42.966-41.569-42.966H339.824c-10.55 0-10.642-19.531.053-19.531h411.988l-.145-3.548"/></svg>